<svg width="44" height="44" viewBox="0 0 44 44" fill="none" xmlns="http://www.w3.org/2000/svg">
<path fill-rule="evenodd" clip-rule="evenodd" d="M22 44C34.1503 44 44 34.1503 44 22C44 9.84974 34.1503 0 22 0C9.84974 0 0 9.84974 0 22C0 34.1503 9.84974 44 22 44ZM16.6704 10.0485C16.8684 9.85051 17.1894 9.85051 17.3873 10.0485L18.8067 11.4678L20.3274 12.9886L21.8482 14.5093L23.3689 16.03C23.5668 16.228 23.5668 16.549 23.3689 16.7469L21.6997 18.4161L22.1994 18.9158L24.781 16.3342C24.979 16.1362 25.3 16.1362 25.4979 16.3342L28.1339 18.9701C28.3318 19.1681 28.3318 19.4891 28.1339 19.687L25.5522 22.2687L25.9505 22.667L27.6197 20.9978C27.8177 20.7998 28.1387 20.7998 28.3366 20.9978L29.756 22.4171L31.2767 23.9379L32.7975 25.4586L34.3182 26.9793C34.5162 27.1773 34.5162 27.4983 34.3182 27.6962L30.2629 31.7515C30.0649 31.9495 29.744 31.9495 29.546 31.7515L28.0253 30.2308L26.5045 28.7101L24.9838 27.1893L23.5644 25.77C23.3665 25.572 23.3665 25.251 23.5644 25.0531L25.2337 23.3839L24.8353 22.9855L22.4564 25.3644C22.2585 25.5624 21.9375 25.5624 21.7396 25.3644L20.78 24.4049L19.0094 26.1755C18.8115 26.3735 18.4905 26.3735 18.2926 26.1755C18.0946 25.9775 18.0946 25.6566 18.2926 25.4586L20.0631 23.688L19.1036 22.7285C18.9057 22.5305 18.9057 22.2096 19.1036 22.0116L21.4825 19.6327L20.9828 19.133L19.3136 20.8022C19.1156 21.0002 18.7947 21.0002 18.5967 20.8022L17.076 19.2815L15.5552 17.7607L14.0345 16.24L12.6151 14.8207C12.4172 14.6227 12.4172 14.3017 12.6151 14.1038L16.6704 10.0485ZM24.4769 21.9102L27.0585 19.3286L25.1395 17.4095L22.5584 19.9906L22.5578 19.9912L22.5573 19.9917L20.1789 22.37L21.1385 23.3296L22.098 24.2891L24.4769 21.9102ZM13.6905 14.4622L14.3929 15.1647L17.7314 11.8263L17.0289 11.1238L13.6905 14.4622ZM18.4482 12.5432L15.1098 15.8816L15.9137 16.6854L19.2521 13.347L18.4482 12.5432ZM19.969 14.0639L16.6306 17.4023L17.4344 18.2062L20.7728 14.8677L19.969 14.0639ZM21.4897 15.5846L18.1513 18.923L18.9551 19.7269L20.6244 18.0577L22.2936 16.3885L21.4897 15.5846ZM26.309 23.7423L27.9782 22.0731L28.6807 22.7756L25.3422 26.114L24.6398 25.4115L26.309 23.7423ZM26.0591 26.8309L29.3975 23.4925L30.2014 24.2963L26.863 27.6347L26.0591 26.8309ZM27.5799 28.3516L30.9183 25.0132L31.7221 25.8171L28.3837 29.1555L27.5799 28.3516ZM29.1006 29.8724L32.439 26.5339L33.2429 27.3378L29.9045 30.6762L29.1006 29.8724ZM16.522 25.7157C16.8019 25.7157 17.0289 25.9426 17.0289 26.2226C17.0289 26.8385 17.5282 27.3378 18.1441 27.3378C18.424 27.3378 18.651 27.5647 18.651 27.8447C18.651 28.1247 18.424 28.3516 18.1441 28.3516C16.9683 28.3516 16.0151 27.3984 16.0151 26.2226C16.0151 25.9426 16.242 25.7157 16.522 25.7157ZM15.4068 26.2226C15.4068 25.9426 15.1798 25.7157 14.8998 25.7157C14.6199 25.7157 14.3929 25.9426 14.3929 26.2226C14.3929 28.2943 16.0724 29.9737 18.1441 29.9737C18.424 29.9737 18.651 29.7468 18.651 29.4668C18.651 29.1869 18.424 28.9599 18.1441 28.9599C16.6323 28.9599 15.4068 27.7344 15.4068 26.2226ZM13.2777 25.7157C13.5577 25.7157 13.7846 25.9426 13.7846 26.2226C13.7846 28.6302 15.7364 30.582 18.1441 30.582C18.424 30.582 18.651 30.809 18.651 31.0889C18.651 31.3689 18.424 31.5959 18.1441 31.5959C15.1765 31.5959 12.7708 29.1902 12.7708 26.2226C12.7708 25.9426 12.9978 25.7157 13.2777 25.7157Z" fill="#7C970F"/>
</svg>
