<svg width="24" height="24" viewBox="0 0 24 24" fill="none" xmlns="http://www.w3.org/2000/svg">
<path fill-rule="evenodd" clip-rule="evenodd" d="M18.8074 12.47L13.6025 16.52C12.8825 17.09 11.8625 17.09 11.1425 16.53L5.93608 12.4788L4.3825 13.69C3.8725 14.09 3.8725 14.87 4.3825 15.27L11.1425 20.53C11.8625 21.09 12.8825 21.09 13.6025 20.52L20.3625 15.26C20.8725 14.86 20.8725 14.08 20.3625 13.68L18.8074 12.47Z" fill="#1C1C1C"/>
<path d="M13.6025 16.52L20.3625 11.26C20.8725 10.86 20.8725 10.08 20.3625 9.68L13.6025 4.42C12.8825 3.86 11.8725 3.86 11.1425 4.42L4.3825 9.69C3.8725 10.09 3.8725 10.87 4.3825 11.27L11.1425 16.53C11.8625 17.09 12.8825 17.09 13.6025 16.52Z" stroke="#1C1C1C" stroke-linecap="round" stroke-linejoin="round"/>
</svg>
