<svg width="24" height="24" viewBox="0 0 80 80" fill="none" xmlns="http://www.w3.org/2000/svg">
<circle cx="40" cy="40" r="39.5" stroke="#333232" stroke-opacity="0.08"/>
<path fill-rule="evenodd" clip-rule="evenodd" d="M32.2857 33C31.5756 33 31 33.5756 31 34.2857C31 34.9958 31.5756 35.5714 32.2857 35.5714C32.9958 35.5714 33.5714 34.9958 33.5714 34.2857C33.5714 33.5756 32.9958 33 32.2857 33ZM37.4286 33C36.7185 33 36.1429 33.5756 36.1429 34.2857C36.1429 34.9958 36.7185 35.5714 37.4286 35.5714H47.7143C48.4244 35.5714 49 34.9958 49 34.2857C49 33.5756 48.4244 33 47.7143 33H37.4286ZM31 39.4286C31 38.7185 31.5756 38.1429 32.2857 38.1429C32.9958 38.1429 33.5714 38.7185 33.5714 39.4286C33.5714 40.1387 32.9958 40.7143 32.2857 40.7143C31.5756 40.7143 31 40.1387 31 39.4286ZM37.4286 38.1429C36.7185 38.1429 36.1429 38.7185 36.1429 39.4286C36.1429 40.1387 36.7185 40.7143 37.4286 40.7143H47.7143C48.4244 40.7143 49 40.1387 49 39.4286C49 38.7185 48.4244 38.1429 47.7143 38.1429H37.4286ZM31 44.5714C31 43.8613 31.5756 43.2857 32.2857 43.2857C32.9958 43.2857 33.5714 43.8613 33.5714 44.5714C33.5714 45.2815 32.9958 45.8571 32.2857 45.8571C31.5756 45.8571 31 45.2815 31 44.5714ZM37.4286 43.2857C36.7185 43.2857 36.1429 43.8613 36.1429 44.5714C36.1429 45.2815 36.7185 45.8571 37.4286 45.8571H47.7143C48.4244 45.8571 49 45.2815 49 44.5714C49 43.8613 48.4244 43.2857 47.7143 43.2857H37.4286Z" fill="#333232" fill-opacity="0.24"/>
</svg>
